{"title":"The Adjustment Bureau *2011*[BluRay][1080p][ENG, POL]","uid":6569704,"size":11091284531,"categoryP":"video","categoryS":"hd___movies","magnet":"?xt=urn:btih:960c553bca19870f49ff9d572d66a08dc56c8e8e&amp;dn=The+Adjustment+Bureau+%2A2011%2A%5BBluRay%5D%5B1080p%5D%5BENG%2C+POL%5D&amp;tr=udp%3A%2F%2Ftracker.openbittorrent.com%3A80&amp;tr=udp%3A%2F%2Fopen.demonii.com%3A1337&amp;tr=udp%3A%2F%2Ftracker.coppersurfer.tk%3A6969&amp;tr=udp%3A%2F%2Fexodus.desync.com%3A6969","seeders":0,"leechers":1,"uploader":"albedo040","files":1,"time":1311885940,"description":"The Adjustment Bureau *2011*[BluRay][1080p][ENG, POL]\n\nGeneral information:\nCountry: USA\nRelease: 26 February 2011 (Belgrade Film Festival)\nGenre:  Romance, Sci-Fi, Thriller\nDirector: George Nolfi\nScreenplay: George Nolfi\nOriginal Music: Thomas Newman\nCinematography by: John Toll\nDuration: 1h 45mn\nLanguage: English, Polish\nSubtitles: English, Polish\nRating=6.6 - 8101 votes\n\nCast:\nMatt Damon ...David Norris\nEmily Blunt ...Elise Sellas\nFlorence Kastriner ...Suburban Mom\nPhyllis MacBryde ...Suburban Neighbor\nNatalie Carter ...Suburban Neighbor (as Natalie E. Carter)\nChuck Scarborough ...Himself\nJon Stewart ...Himself\nGregory P. Hitchen ...U.S. Coast Guard Officer (as Capt. Gregory P. Hitchen)\nDarrell Lenormand ...Upstate Farmer\nKar...Political Consultant\nMichael Kelly ...Charlie Traynor\nRJ Konner ...Political Consultant\nSusan D. Michaels ...Reporter\nAnthony Mackie ...Harry Mitchell\nGregory Lay ...Albert, Campaign Aide\n\nPlot:\nThe affair between a politician and a ballerina is affected by mysterious forces keeping the lovers apart.\n\nSpecifications:\nGeneral\nFormat                           : Matroska\nFormat version                   : Version 2\nOverall bit rate                 : 14.0 Mbps\n\nVideo\nFormat                           : AVC\nFormat/Info                      : Advanced Video Codec\nFormat profile                   : &lt;a class=&quot;__cf_email__&quot; href=&quot;/cdn-cgi/l/email-protection&quot; data-cfemail=&quot;5f173638371f136b716e&quot;&gt;[email&amp;#160;protected]&lt;/a&gt;&lt;script cf-hash='f9e31' type=&quot;text/javascript&quot;&gt;\n/* &lt;![CDATA[ */!function(){try{var t=&quot;currentScript&quot;in document?document.currentScript:function(){for(var t=document.getElementsByTagName(&quot;script&quot;),e=t.length;e--;)if(t[e].getAttribute(&quot;cf-hash&quot;))return t[e]}();if(t&amp;&amp;t.previousSibling){var e,r,n,i,c=t.previousSibling,a=c.getAttribute(&quot;data-cfemail&quot;);if(a){for(e=&quot;&quot;,r=parseInt(a.substr(0,2),16),n=2;a.length-n;n+=2)i=parseInt(a.substr(n,2),16)^r,e+=String.fromCharCode(i);e=document.createTextNode(e),c.parentNode.replaceChild(e,c)}}}catch(u){}}();/* ]]&gt; */&lt;/script&gt;\nFormat settings, CABAC           : Yes\nFormat settings, ReFrames        : 4 frames\nMuxing mode                      : Header stripping\nCodec ID                         : V_MPEG4/ISO/AVC\nBit rate mode                    : Variable\nBit rate                         : 12.0 Mbps\nMaximum bit rate                 : 40.0 Mbps\nWidth                            : 1 920 pixels\nHeight                           : 1 040 pixels\nDisplay aspect ratio             : 16:9\nFrame rate                       : 23.976 fps\n\nAudio 1\nFormat                           : DTS\nFormat/Info                      : Digital Theater Systems\nMuxing mode                      : Header stripping\nCodec ID                         : A_DTS\nBit rate mode                    : Constant\nBit rate                         : 1 510 Kbps\nChannel(s)                       : 6 channels\nChannel positions                : Front: L C R, Side: L R, LFE\nSampling rate                    : 48.0 KHz\nBit depth                        : 24 bits\nCompression mode                 : Lossy\nStream size                      : 1.12 GiB (11%)\nTitle                            : English\nLanguage                         : English\n\nAudio 2\nFormat                           : AC-3\nFormat/Info                      : Audio Coding 3\nMode extension                   : CM (complete main)\nMuxing mode                      : Header stripping\nCodec ID                         : A_AC3\nBit rate mode                    : Constant\nBit rate                         : 448 Kbps\nChannel(s)                       : 6 channels\nChannel positions                : Front: L C R, Side: L R, LFE\nSampling rate                    : 48.0 KHz\nBit depth                        : 16 bits\nCompression mode                 : Lossy\nStream size                      : 339 MiB (3%)\nTitle                            : Polish\nLanguage                         : Polish\n\nText 1\nFormat                           : UTF-8\nCodec ID                         : S_TEXT/UTF8\nCodec ID/Info                    : UTF-8 Plain Text\nTitle                            : English\nLanguage                         : English\n\nText 2\nFormat                           : UTF-8\nCodec ID                         : S_TEXT/UTF8\nCodec ID/Info                    : UTF-8 Plain Text\nTitle                            : Polish\nLanguage                         : Polish\n","torrent":{"xt":"urn:btih:960c553bca19870f49ff9d572d66a08dc56c8e8e","amp;dn":"The+Adjustment+Bureau+%2A2011%2A%5BBluRay%5D%5B1080p%5D%5BENG%2C+POL%5D","amp;tr":["udp%3A%2F%2Ftracker.openbittorrent.com%3A80","udp%3A%2F%2Fopen.demonii.com%3A1337","udp%3A%2F%2Ftracker.coppersurfer.tk%3A6969","udp%3A%2F%2Fexodus.desync.com%3A6969"],"infoHash":"960c553bca19870f49ff9d572d66a08dc56c8e8e","infoHashBuffer":{"type":"Buffer","data":[150,12,85,59,202,25,135,15,73,255,157,87,45,102,160,141,197,108,142,142]},"announce":[],"urlList":[]}}